<svg xmlns="http://www.w3.org/2000/svg" viewBox="0 0 216 287" width="216" height="287">
	<style>
		tspan { white-space:pre }
		.shp0 { fill: none;stroke: #ccc500;stroke-linejoin:round;stroke-width: 4 } 
		.shp1 { fill: none;stroke: #ccc500;stroke-linejoin:round;stroke-width: 4;stroke-dasharray: 4,4 } 
		.shp2 { opacity: 0.89;fill: none;stroke: #ccc500;stroke-linejoin:round;stroke-width: 4;stroke-dasharray: 4,4 } 
		.shp3 { opacity: 0.89;fill: none;stroke: #ccc500;stroke-linejoin:round;stroke-width: 4 } 
	</style>
	<path id="svg_3" class="shp0" d="M15.01 250.88C10.83 228.89 49.88 203.03 102.26 193.08C154.64 183.13 200.44 192.88 204.62 214.87C208.79 236.85 169.75 262.71 117.37 272.66C64.99 282.61 19.18 272.86 15.01 250.88Z" />
	<g id="Layer">
		<g id="svg_4">
			<path id="svg_5" class="shp1" d="M110.17 228.94L202.78 211.35" />
			<path id="svg_1" class="shp2" d="M69.95 10.32L111.3 228.08" />
			<path id="svg_8" class="shp0" d="M70.06 10.94L202.66 210.73" />
			<path id="svg_11" class="shp0" d="M69.56 11.69L14.82 245.75" />
			<path id="svg_2" class="shp3" d="M106.35 133.72L106.47 134.34L106.7 135.59L107.06 137.47L107.54 139.97L108.13 143.1L108.49 144.98L109.08 148.11L109.67 151.24L110.03 153.11L110.51 155.62L110.86 157.49L111.1 158.75L111.34 160L112.32 161.76L112.44 162.38L112.68 163.63L112.8 164.26L112.91 164.88L112.29 165L111.93 163.13L111.69 161.87L111.85 159.25L111.61 158L111.88 156.01L112.38 155.26L112.26 154.63L112.15 154.01L113.4 153.77L113.9 153.03L114.41 152.28L115.04 152.16L115.66 152.04L116.17 151.3L117.42 151.06L118.05 150.94L118.67 150.82L119.3 150.71L119.42 151.33L120.79 151.72L121.03 152.97L121.14 153.6L122.01 154.73L122.25 155.98L122.6 157.86L122.84 159.11L123.08 160.36L123.32 161.61L123.43 162.24L123.67 163.49L123.79 164.12" />
			<path id="svg_6" class="shp3" d="M143.67 200.54L143.55 199.91L143.44 199.28L142.81 199.4L142.18 199.52L141.44 199.02L140.81 199.13L140.19 199.25L139.56 199.37L138.31 199.61L137.69 199.73L137.06 199.85L136.55 200.59L136.05 201.34L136.16 201.96L136.28 202.59L135.78 203.33L135.9 203.96L136.13 205.21L136.25 205.84L136.88 205.72L137.5 205.6L137.62 206.22L138.25 206.1L138.87 205.99L138.99 206.61L139.74 207.12L140.36 207L140.99 206.88L141.11 207.51L141.73 207.39L141.85 208.01L142.48 207.89L143.22 208.4L143.34 209.03L144.09 209.53L144.2 210.16L144.32 210.79L145.07 211.29L145.19 211.92L145.31 212.54L145.42 213.17L145.54 213.8L145.66 214.42L145.04 214.54L145.16 215.17L144.53 215.29L143.9 215.4L143.28 215.52L142.65 215.64L142.03 215.76L141.4 215.88L140.78 216L140.15 216.12L139.52 216.24L138.9 216.35L138.27 216.47L137.65 216.59L137.02 216.71L136.39 216.83L135.65 216.32L135.53 215.7L134.91 215.82L134.79 215.19L134.16 215.31L134.04 214.68" />
			<path id="svg_15" class="shp3" d="M9.58 129.4L10.2 129.28L10.59 127.91L11.72 127.05L12.85 126.19L14.49 124.58L15.51 123.09L16.52 121.6L17.81 118.11L18.58 115.37L19.48 113.26L19.51 110.01L20.17 106.64L20.32 104.02L20.35 100.78L20.62 98.78L20.38 97.53L20.02 95.65L19.67 93.77L19.55 93.15L18.92 93.27L18.3 93.38L17.79 94.13L16.77 95.62L16.62 98.24L15.85 100.98L15.7 103.6L16.05 105.48L15.9 108.1L15.75 110.72L16.59 115.1L17.18 118.23L17.15 121.48L17.12 124.73L17.71 127.86L18.19 130.36L18.9 134.11L19.49 137.24L19.85 139.12L20.21 141L20.44 142.25L21.19 142.76L23.07 142.4L24.32 142.16L25.57 141.92L27.33 140.94L28.34 139.45L28.85 138.71" />
		</g>
	</g>
</svg>