<svg xmlns="http://www.w3.org/2000/svg" viewBox="0 0 256 313" width="256" height="313">
	<style>
		tspan { white-space:pre }
		.shp0 { fill: none;stroke: #ccc500;stroke-linejoin:round;stroke-width: 4 } 
		.shp1 { fill: none;stroke: #ccc500;stroke-linejoin:round;stroke-width: 7 } 
		.shp2 { fill: none;stroke: #ccc500;stroke-linejoin:round;stroke-width: 5 } 
	</style>
	<g id="Layer">
		<path id="svg_2" class="shp0" d="M154.82 78.37L154.82 77.82L154.82 77.27L154.27 76.73L153.72 76.73L153.18 76.18L151.54 75.63L150.99 75.63L149.9 75.63L149.35 75.09L148.26 74.54L147.17 74.54L146.62 74.54L145.53 73.99L144.43 73.99L143.34 73.99L142.79 73.45L141.7 73.45L141.16 73.45L140.06 73.45L138.97 72.9L138.42 72.9L137.88 72.36L136.78 72.36L135.69 72.36L135.14 72.36L134.05 71.81L133.5 71.81L132.96 71.81L131.87 71.26L130.77 71.26L129.68 71.26L129.13 71.26L128.04 71.26L126.95 71.26L126.4 71.26L124.76 71.26L124.22 71.26L123.12 71.26L122.58 71.26L121.48 71.26L120.94 71.26L119.84 71.26L118.75 71.26L118.2 71.26L117.66 71.26L117.11 71.26L116.02 71.26L115.47 71.26L114.38 71.26L113.83 71.26L113.29 71.26L112.74 71.26L111.65 71.26L111.1 71.26L110.55 71.26L110.01 71.26L109.46 71.26L108.91 71.26L108.37 71.26L107.28 71.26L106.73 71.81L106.18 71.81L105.64 71.81L105.09 71.81L105.09 72.36L104.54 72.36L104 72.9L103.45 72.9L102.9 72.9L102.36 72.9L101.81 72.9L101.26 72.9L100.72 72.9L100.17 72.9L99.63 72.9L99.08 72.9L98.53 72.9L98.53 72.36L97.99 72.36L97.99 71.81L97.99 71.26L97.99 70.72L97.99 70.17L97.44 70.17L97.44 69.62L97.44 69.08L97.44 68.53L97.44 67.98L97.44 67.44L97.44 66.89L97.44 66.34L97.44 65.8L97.44 65.25L97.99 65.25L97.99 64.7L98.53 64.7L98.53 64.16L98.53 63.61L99.08 63.61L99.08 63.07L99.63 62.52L99.63 61.97L100.17 61.97L100.17 61.43L100.17 60.88L100.72 60.88L101.26 60.88L101.26 60.33L101.26 59.79L101.81 59.79L101.81 59.24L101.81 58.69L101.81 58.15L102.36 58.15L102.36 57.6L102.36 57.05L102.36 56.51L102.9 56.51L102.9 55.96L102.9 55.42L103.45 55.42L103.45 54.87L103.45 54.32L103.45 53.78L103.45 53.23L102.9 53.23L102.9 52.68L102.9 52.14L102.36 52.14L102.36 51.59L101.81 51.59L101.81 51.04L101.81 50.5L101.26 50.5L100.72 50.5L100.17 50.5L100.17 49.95L99.63 49.4L99.08 49.4L99.08 48.86L99.08 48.31L99.08 47.77L99.08 47.22L99.08 46.67L99.08 46.13L99.08 45.58L99.08 45.03L99.08 44.49L99.63 43.94L99.63 43.39L99.63 42.85L99.63 42.3L100.17 42.3L100.17 41.75L100.17 41.21L100.17 40.66L100.17 40.11L99.63 39.57L99.08 39.02L99.08 38.48L99.08 37.93L98.53 37.93L98.53 37.38L97.99 37.38L97.99 36.84L97.99 36.29L97.99 35.74L97.99 35.2L97.99 34.65L97.99 34.1L97.99 33.56L97.44 33.01L97.44 32.46L97.44 31.92L97.44 31.37L97.44 30.83L97.99 29.73L98.53 29.19L98.53 28.64L99.08 28.64L99.63 28.64L99.63 28.09L100.17 28.09L101.26 27.55L101.81 27L102.36 27L102.9 27L103.45 26.45L104 26.45L104.54 26.45L105.09 26.45L105.64 25.91L106.18 25.91L106.73 25.91L107.28 25.91L107.82 25.36L108.37 25.36L108.91 25.36L108.91 24.81L110.01 24.81L110.55 24.81L111.1 24.81L111.1 24.27L112.19 24.27L112.74 24.27L113.29 24.27L113.83 23.72L114.38 23.72L114.93 23.72L115.47 23.17L116.02 23.17L116.57 23.17L117.11 22.63L117.66 22.63L118.2 22.63L118.75 22.63L119.3 22.63L119.84 22.63L120.39 22.63L121.48 22.63L122.03 22.63L122.58 22.63L123.12 22.63L123.67 22.63L124.22 22.63L124.76 22.63L125.31 22.63L125.85 22.63L125.85 22.08L125.85 21.54L125.85 20.99L125.85 20.44L125.85 19.9L126.4 19.9L126.95 19.35L127.49 19.35L128.59 19.35L129.13 18.8L129.68 18.8L130.23 18.8L130.77 18.8L131.32 18.8L131.87 18.8L132.41 18.8L132.96 18.8L133.5 18.8L134.05 18.8L134.6 18.8L135.14 18.8L135.69 18.8L136.24 18.8L136.78 18.8L137.33 19.35L137.88 19.35L138.42 19.35L139.52 19.9L140.06 19.9L140.61 19.9L141.16 19.9L141.7 20.44L142.25 20.44L142.79 20.99L143.89 20.99L144.43 20.99L144.98 20.99L145.53 21.54L146.07 21.54L147.17 21.54L148.26 22.08L148.81 22.08L149.35 22.08L150.44 22.63L150.99 23.17L151.54 23.17L152.63 23.72L153.18 23.72L153.72 23.72L154.27 24.27L154.82 24.27L155.36 25.36L155.91 25.36L156.46 25.91L157 26.45L157.55 27L157.55 27.55L158.1 27.55L158.1 28.09L158.1 28.64L158.1 29.19L158.1 29.73L158.64 29.73L158.64 30.28L158.64 30.83L158.1 30.83L158.1 31.92L157.55 31.92L157.55 32.46L157 32.46L157 33.01L156.46 33.01L156.46 33.56L155.91 33.56L155.36 34.1L155.36 34.65L154.82 34.65L154.82 35.2L154.27 35.2L154.27 35.74L153.72 35.74L153.72 36.29L153.72 36.84L153.18 36.84L153.18 37.38L153.18 37.93L152.63 37.93L152.63 38.48L152.63 39.02L152.63 39.57L152.08 39.57L152.08 40.11L152.08 40.66L152.08 41.21L152.08 41.75L152.63 41.75L152.63 42.3L152.63 42.3L153.18 42.3L153.72 42.85L153.72 43.39L154.27 43.39L154.82 43.39L155.36 43.39L155.36 43.94L155.91 43.94L156.46 43.94L156.46 44.49L157.55 44.49L157.55 45.03L158.1 45.58L158.1 46.13L158.64 46.13L158.64 46.67L159.19 46.67L159.19 47.22L159.73 47.22L159.73 47.77L159.73 48.31L159.73 48.86L159.73 49.4L159.19 49.4L159.19 49.95L158.64 50.5L158.1 50.5L157.55 51.04L157 51.04L156.46 51.59L155.91 51.59L155.91 52.14L155.36 52.14L154.82 52.68L154.27 53.23L154.27 53.78L153.72 53.78L153.72 54.32L153.72 54.87L153.72 55.42L153.72 55.96L153.72 56.51L154.27 57.05L154.27 57.6L154.82 57.6L154.82 58.15L155.36 58.15L155.36 58.69L155.36 59.24L155.91 59.24L156.46 59.24L156.46 59.79L157 59.79L157.55 60.33L157.55 60.88L158.1 61.43L158.64 61.43L158.64 61.97L159.19 62.52L159.73 62.52L160.28 63.07L160.28 63.61L160.28 64.16L160.83 64.16L160.83 64.7L160.83 65.25L161.37 65.8L161.37 66.34L161.92 66.34L161.92 66.89L161.92 67.44L161.92 67.98L161.92 68.53L161.92 69.08L161.92 69.62L161.92 70.17L161.37 70.17L161.37 70.72L160.83 71.26L160.83 71.81L160.28 71.81L160.28 72.9L159.19 72.9L159.19 73.45L158.64 73.45L158.64 73.99L158.1 73.99L158.1 74.54L158.1 75.09L157 75.09L157 75.63L156.46 75.63L156.46 76.18L155.91 76.18L154.82 76.73L154.82 77.27L154.27 77.27" />
		<path id="svg_3" class="shp0" d="M102.36 63.61L102.36 63.07L102.9 63.07L103.45 62.52L104 62.52L104.54 61.97L105.09 61.97L105.64 61.43L106.18 61.43L106.73 60.88L107.28 60.33L108.37 60.33L108.91 59.79L109.46 59.79L109.46 59.24L110.55 59.24L111.65 59.24L111.65 58.69L112.19 58.15L113.29 58.15L113.83 58.15L114.38 58.15L115.47 58.15L116.57 58.15L117.11 57.6L118.2 57.6L118.75 57.6L120.39 57.6L120.94 57.6L122.03 57.6L122.58 57.6L123.67 57.6L124.76 57.6L125.85 57.6L126.4 57.6L127.49 57.6L128.04 57.6L128.59 57.6L129.13 57.6L129.68 57.6L130.23 57.6L131.32 57.6L131.87 57.6L132.41 57.6L132.96 57.6L133.5 57.6L134.05 57.6L134.6 57.6L134.6 58.15L135.14 58.15L135.69 58.15" />
		<path id="svg_4" class="shp0" d="M147.71 49.4L147.17 49.4L146.62 48.86L145.53 48.86L144.98 48.31L144.43 48.31L143.34 48.31L142.79 47.77L142.25 47.77L142.25 47.22L141.7 47.22L141.16 47.22L140.61 46.67L140.06 46.67L139.52 46.67L138.97 46.67L138.42 46.67L138.42 46.13L137.88 46.13L137.33 46.13L136.78 46.13L136.24 46.13L135.69 46.13L135.14 46.13L134.05 46.13L133.5 46.13L132.96 46.13L132.41 46.13L131.87 46.13L131.32 46.13L130.77 46.13L130.23 46.13L129.68 46.13L129.13 46.13L129.13 46.67L128.59 46.67L128.04 47.22L127.49 47.22L126.95 47.22L126.4 47.77L125.85 47.77L125.85 48.31" />
		<path id="svg_5" class="shp0" d="M101.81 43.94L102.36 43.39L102.9 43.39L102.9 42.85L103.45 42.85L104.54 42.3L105.09 41.75L105.64 41.75L106.73 41.21L107.28 40.66L107.82 40.66L108.91 40.11L110.01 40.11L110.55 40.11L111.1 39.57L112.19 39.02L112.74 39.02L113.83 39.02L114.93 38.48L115.47 38.48L116.02 38.48L116.57 38.48L117.66 38.48L118.2 38.48L119.3 38.48L119.84 38.48L120.39 38.48L121.48 38.48L122.03 38.48L122.58 38.48L123.67 38.48L124.22 38.48L124.76 38.48L125.31 38.48L125.85 38.48L126.4 38.48L126.95 38.48L127.49 38.48L126.95 38.48L126.95 39.02L126.4 39.02L125.85 39.02" />
		<path id="svg_6" class="shp0" d="M149.35 32.46L149.9 31.92L149.9 31.37L149.9 30.83L149.9 30.28L148.81 30.28L147.71 29.73L146.62 29.19L146.07 28.64L145.53 28.64L144.43 28.09L143.34 28.09L142.25 28.09L141.16 28.09L140.06 28.09L138.97 28.09L137.88 28.09L136.78 28.09L135.14 28.64L134.6 29.19" />
		<path id="svg_7" class="shp0" d="M143.34 85.47L143.89 86.02L143.89 86.56L144.43 87.11L144.43 87.66L144.43 89.3L144.98 90.93L144.98 92.57L144.98 94.21L145.53 96.4L145.53 98.04L145.53 99.13L145.53 100.22L145.53 101.32L146.07 102.96L146.07 104.05L146.62 105.14L146.62 106.23L146.62 107.33L146.62 108.42L146.62 109.51L146.62 110.61L146.62 112.25L146.62 113.34L146.62 114.43L146.62 115.52L146.62 116.62L146.62 118.26L146.62 119.35L146.62 120.44L146.62 120.99L146.07 122.08L144.98 123.17L143.89 123.72L143.34 124.27L142.25 125.36L141.7 125.36L140.61 125.91L139.52 125.91L137.88 125.91L136.78 125.91L135.14 125.91L134.6 125.91L132.96 125.91L131.87 125.91L130.23 125.36L129.13 124.81L128.04 124.27L126.4 123.72L125.31 123.72L124.22 123.17L123.67 122.63L123.12 122.63L122.58 122.08L121.48 121.54L120.94 120.44L120.39 119.9L119.84 119.35L119.84 118.26L119.84 117.16L119.84 114.98L119.84 112.79L119.84 110.61L119.84 108.42L119.84 106.78L119.84 105.69L119.84 104.05L119.84 102.41L119.84 101.86L119.84 100.22L120.39 98.58L120.39 97.49L120.39 95.85L120.39 94.76L120.94 93.67L120.94 92.57L120.94 91.48L120.94 90.39L120.94 89.3L120.94 88.75L120.94 87.66L121.48 86.56L121.48 86.02L121.48 84.92L121.48 84.38L121.48 83.83L121.48 83.28L121.48 82.19L121.48 81.64L121.48 81.1L121.48 80.55L121.48 80.01L121.48 79.46L120.94 78.91L120.94 78.37" />
		<path id="svg_8" class="shp0" d="M147.17 120.99L146.62 120.99L146.62 121.54L146.62 122.63L146.07 123.17L146.07 124.27L146.07 125.36L146.07 127L146.07 128.09L146.07 129.19L146.07 130.28L146.07 131.37L146.62 132.46L147.17 133.56L147.71 134.65L147.71 135.74L148.26 136.29L148.26 137.38L148.81 138.48L149.35 139.02L149.9 140.11L149.9 141.21L150.44 142.3L150.99 142.85L150.99 143.94L151.54 145.03L152.08 145.58L152.08 146.13L152.63 147.77L152.63 148.31L153.18 149.4L153.18 149.95L153.72 151.59L154.27 152.14L154.27 153.78L154.82 154.87L155.36 155.96L155.36 157.05L155.91 158.15L156.46 158.69L157 159.79L157 160.88L157.55 162.52L158.64 163.61L158.64 165.25L159.19 165.8L159.19 166.34L159.73 167.44L159.73 167.98L160.28 168.53L160.28 169.62L160.83 170.17L160.83 170.72L161.37 170.72L161.37 171.81L161.37 172.36L161.37 172.9L161.92 173.45L161.92 173.99L162.47 174.54L162.47 175.09L161.92 175.09L161.37 175.09L161.37 174.54L160.83 174.54L160.28 174.54L159.73 174.54L159.73 173.99L159.19 173.99L159.19 173.45L158.64 173.45L158.1 172.9L157.55 172.9L157.55 172.36L157.55 171.81L157 171.26L156.46 171.26L156.46 170.72L156.46 170.17L155.91 170.17L155.91 169.62L155.91 169.08L155.36 168.53L155.36 167.98L154.82 167.44L154.82 166.89L153.72 166.34L153.72 165.8L153.18 165.8L152.63 164.7L152.08 164.7L152.08 164.16L151.54 164.16L151.54 163.61L150.99 163.61L150.44 163.07L149.9 163.07L149.35 163.07L148.81 163.07L148.26 163.07L148.26 163.61L147.71 164.16L147.71 164.7L147.17 165.8L147.17 166.34L146.62 166.89L146.62 167.44L146.62 168.53L146.07 169.62L146.07 170.17L145.53 170.17L144.98 170.72L144.98 171.81L144.43 172.36L143.89 172.9L143.89 173.45L143.34 173.99L142.79 174.54L142.25 174.54L141.7 175.09L141.16 175.63L140.61 175.63L140.61 176.18L140.06 176.18L139.52 176.18L138.97 176.18L138.97 175.63L138.97 175.09L138.42 175.09L138.42 174.54L138.42 173.99L137.88 173.45L137.88 172.9L137.88 172.36L137.88 171.26L137.88 170.17L137.88 169.62L137.88 169.08L137.33 168.53L137.33 167.44L137.33 166.89L136.78 166.34L136.78 165.8L136.24 165.8L136.24 164.7L136.24 164.16L135.69 164.16L135.69 163.61L135.69 163.07L135.14 163.07L135.14 162.52L134.6 162.52L134.6 161.97L134.05 161.97L133.5 161.97L132.96 161.97L132.41 161.97L131.87 162.52L131.87 163.07L131.32 163.07L130.77 164.16L130.77 164.7L130.23 165.25L130.23 165.8L129.13 166.34L129.13 166.89L128.59 167.44L128.59 168.53L128.04 168.53L128.04 169.62L128.04 170.17L127.49 170.72L126.95 171.26L126.4 171.81L125.85 172.36L125.31 172.36L125.31 172.9L124.76 172.9L124.22 172.9L123.67 173.45L123.12 173.45L123.12 172.9L122.58 172.9L122.58 172.36L122.03 171.81L122.03 171.26L122.03 170.17L122.03 169.08L122.03 167.98L122.03 166.89L122.03 166.34L121.48 165.8L121.48 164.7L120.94 164.16L120.94 163.61L120.94 163.07L120.94 162.52L120.39 161.97L119.84 161.43L119.84 160.88L119.84 160.33L119.3 160.33L119.3 159.79L118.75 159.79L118.2 159.79L117.66 159.79L117.66 159.24L117.11 159.24L116.57 159.24L116.02 159.24L115.47 159.24L114.93 159.24L114.93 159.79L114.38 159.79L114.38 160.33L113.83 160.33L113.29 160.33L112.74 160.33L112.19 160.33L111.65 160.33L111.1 160.33L110.55 160.33L110.01 160.33L110.01 159.79L110.01 159.24L110.01 158.69L110.01 158.15L110.01 157.6L110.01 157.05L110.01 156.51L110.55 156.51L110.55 155.42L110.55 154.87L111.1 154.32L111.65 153.23L111.65 152.68L112.19 152.14L112.74 151.04L113.29 149.95L113.83 149.4L114.38 148.31L114.38 147.77L114.93 146.67L116.02 146.13L116.02 145.58L116.57 145.03L117.11 143.94L117.11 143.39L117.66 142.85L118.2 141.75L118.2 141.21L118.75 140.66L118.75 139.57L119.3 139.02L119.3 137.38L119.84 136.84L119.84 136.29L120.39 135.2L120.39 134.65L120.39 134.1L120.94 133.56L120.94 132.46L120.94 131.92L120.94 131.37L120.94 130.83L120.94 130.28L120.94 129.73L120.94 129.19L120.94 128.64L120.94 128.09L120.94 127.55L120.94 127L120.94 126.45L120.94 125.91L120.94 125.36L121.48 125.36L121.48 124.81L121.48 124.27L121.48 123.72L121.48 123.17L121.48 122.63L121.48 122.08L121.48 121.54" />
		<path id="svg_18" class="shp1" d="M128.39 258.52C144.32 258.59 161.54 254.53 171.92 241.49C180 231.87 188.5 221.67 190.35 208.79C194.54 186.05 194.34 161.99 187.41 139.8C183.4 128.78 174.12 120.81 168.53 110.62C161.14 99.95 157.64 86.98 158.62 74.05C139.09 74.05 119.57 74.05 100.04 74.05C99.98 93.39 87.97 109.29 77.26 124.32C69.79 133.16 64.95 143.87 63.25 155.33C59.95 175.85 59.21 197.82 66.83 217.5C74.07 232.56 82.94 249.09 99.9 254.8C108.99 258.12 118.8 258.68 128.39 258.52L128.39 258.52ZM158.39 75.35L158.39 75.35L158.39 75.35ZM158.64 75.51L158.64 75.51L158.64 75.51L158.64 75.51Z" />
		<path id="svg_9" class="shp2" d="M93.07 200.77L92.52 202.96L91.97 203.5L91.97 205.14L91.97 206.23L91.97 207.33L92.52 208.42L93.07 211.15L93.07 212.79L93.07 213.89L94.16 214.98L94.71 216.07L94.71 217.71L95.25 218.8L95.8 219.9L96.35 220.99L96.89 222.08L97.44 222.63L97.44 223.72L98.53 224.81L99.08 225.91L99.63 226.45L100.17 228.09L101.26 228.64L101.81 229.73L102.9 230.28L103.45 230.83L104 231.92L104.54 232.46L105.64 232.46L105.64 233.01L106.18 233.01L106.73 233.01" />
		<path id="svg_10" class="shp2" d="M54.27 197.49L54.27 198.04L53.72 198.58L52.63 199.13L51.54 200.22L49.9 200.77L48.81 201.32L47.17 201.86L46.07 202.41L44.98 202.96L43.34 203.5L41.16 204.6L39.52 205.14L36.24 206.23L34.6 206.78L31.87 207.33L28.59 207.87L24.76 208.42L22.03 208.97L18.2 208.97L15.47 209.51" />
		<path id="svg_11" class="shp2" d="M75.03 263.07L75.03 263.61L75.03 264.16L74.49 265.25L73.94 265.8L72.3 267.44L70.66 268.53L69.02 269.62L67.93 270.17L66.84 270.72L66.29 271.26" />
		<path id="svg_12" class="shp2" d="M146.07 274.54L146.07 275.09L145.53 275.63L145.53 277.27L145.53 279.46L145.53 281.64L145.53 283.28L145.53 285.47L146.07 287.11L146.62 290.93L147.17 293.67L148.26 296.95L148.81 299.68" />
		<path id="svg_13" class="shp2" d="M208.91 240.11L208.91 241.21L210.01 241.75L211.1 242.85L212.74 243.94L215.47 245.58L217.66 247.22L220.94 249.4L224.22 251.59L227.49 253.78L228.04 254.32" />
		<path id="svg_14" class="shp2" d="M212.19 187.66L212.74 187.66L213.29 187.11L214.38 187.11L214.93 186.56L216.02 186.56L218.2 186.56L220.39 186.56L224.22 186.02L226.95 185.47L229.68 185.47L232.96 184.92L236.24 184.92L239.52 184.38L241.7 184.38L243.34 184.38L243.89 184.38" />
	</g>
</svg>